<svg version="1.1" xmlns="http://www.w3.org/2000/svg" xmlns:xlink="http://www.w3.org/1999/xlink" viewBox="0 0 172 172"><g transform=""><g fill="none" fill-rule="nonzero" stroke="none" stroke-width="1" stroke-linecap="butt" stroke-linejoin="miter" stroke-miterlimit="10" stroke-dasharray="" stroke-dashoffset="0" font-family="none" font-weight="none" font-size="none" text-anchor="none" style="mix-blend-mode: normal"><path d="M0,172v-172h172v172z" fill="none"></path><g fill="#102e62"><path d="M86,18.8125l-5.375,2.6875v9.1333c-3.35276,-0.11047 -6.7204,-0.07719 -10.16211,0.18371c-5.86144,0.48106 -11.87417,1.89326 -16.87561,3.30689c-5.02831,1.3545 -9.45924,2.12417 -14.47681,2.08386c-1.3545,0.01881 -2.2234,0.04283 -3.2124,-0.10498c-0.97825,-0.14513 -1.9662,-0.37512 -2.9552,-0.71912c-0.98631,-0.344 -1.96465,-0.79038 -2.90796,-1.33325c-0.91375,-0.47837 -1.98102,-1.25712 -2.56152,-1.70593l-6.17285,5.18604c1.2255,1.57756 2.23247,2.57731 3.50635,3.69531c1.247,1.05081 2.60599,1.98854 4.06799,2.80823c1.20023,0.68648 2.51335,1.20414 3.85803,1.65344h-0.48291l-13.4375,32.25h-8.0625c10.75,25.08244 43,25.08244 53.75,0h-8.0625l-12.78662,-30.68054c1.258,0.02597 2.52147,0.0309 3.78455,-0.0105c3.05031,-0.12631 6.02924,-0.63685 8.79736,-1.12329c5.55506,-1.01856 10.16862,-2.02566 15.15393,-2.15735c4.902,-0.28756 10.06007,-0.03821 15.08569,0.47241c4.95306,0.42194 9.63708,1.44617 14.00964,3.12317c4.429,1.59906 8.45693,4.16625 13.46375,7.02844c2.53431,1.3975 5.27758,2.86315 8.31445,3.87903c2.08656,0.65609 4.22913,1.20585 6.37231,1.54321l-13.07007,31.36292h-8.0625c10.75,25.08244 43,25.08244 53.75,0h-8.0625l-13.21704,-31.7146c0.52337,-0.13662 1.05415,-0.26149 1.55896,-0.44092c1.58294,-0.55094 3.08748,-1.23268 4.49842,-2.05237c1.45125,-0.87613 2.61599,-1.6825 4.09949,-3.01819l-5.17554,-6.17285c-0.65037,0.34131 -1.82729,0.92689 -2.80823,1.24402c-1.02662,0.37087 -2.07017,0.64954 -3.10217,0.81885c-1.032,0.172 -2.04493,0.22096 -3.03393,0.19946c-0.99975,-0.02419 -1.88474,-0.19048 -3.10217,-0.46191c-4.62788,-0.84119 -8.36778,-2.76565 -12.58716,-5.59021c-4.16562,-2.89175 -9.22829,-6.37656 -14.91772,-8.77112c-4.53858,-1.9574 -9.31066,-3.13479 -14.02539,-3.85278v-10.06238zM80.625,51.0625v72.5625h-9.47974c-4.07156,0 -7.79409,2.30033 -9.61621,5.9419l-2.40405,4.8081h53.75l-2.40405,-4.8081c-1.82212,-3.64156 -5.54465,-5.9419 -9.61621,-5.9419h-9.47974v-72.5625zM37.625,53.75l8.0625,24.1875h-16.125zM134.375,67.1875l8.0625,24.1875h-16.125zM51.0625,139.75l-5.375,13.4375h80.625l-4.68213,-12.05701z"></path></g><path d="" fill="none"></path></g></g></svg>